<svg id="Layer_1" data-name="Layer 1" xmlns="http://www.w3.org/2000/svg" viewBox="0 0 1200 1200"><defs><style>.cls-1{fill:#f4f3f3;}</style></defs><rect class="cls-1" width="1200" height="1200"/><path d="M584,175.68A424.37,424.37,0,0,0,177.73,557.4a373.7,373.7,0,0,0-2,42.76c0,15,.23,21.44,1.16,33.14a421.77,421.77,0,0,0,59.84,186.48A426.31,426.31,0,0,0,412.47,981.2a421.27,421.27,0,0,0,154.77,42.45c11.7.94,18.12,1.16,33.13,1.16s21.44-.22,33.14-1.16A421.65,421.65,0,0,0,820,963.81a426.24,426.24,0,0,0,177.93-213.7,421.86,421.86,0,0,0,25.94-116.81c.94-12,1.14-17.85,1.14-33s-.2-21.49-1.14-33.27A424.39,424.39,0,0,0,627.42,176.22C614.39,175.4,596.63,175.17,584,175.68ZM665,244.89a358.73,358.73,0,0,1,124.18,47.49l5.1,3.15c.65.39.87.71.76,1s-2,5.6-4.11,11.92-6.42,18.8-9.48,27.75-8.07,23.54-11.1,32.43l-7.17,21c-2.58,7.48-12.09,35.32-16.28,47.58s-11.19,32.68-32.85,96c-8.05,23.5-16.2,47.35-18.13,52.95s-6.94,20.25-11.13,32.57-12.18,35.57-17.7,51.68S657,699.9,656.93,700.13s-.17-102.43-.17-228.14l0-228.57.65.11ZM505.45,257.27c-3.32,9-4.65,12.51-11.84,31.94-3.63,9.74-8.1,21.84-10,26.91-3.26,8.8-4.36,11.75-12.06,32.56-1.87,5.07-8.44,22.77-14.59,39.37s-13.17,35.51-15.58,42.05-8.38,22.6-13.22,35.68c-9.71,26.14-17.08,46-21.1,56.93-3.14,8.52-12.88,34.8-21.1,56.92-3.28,8.86-6.48,17.47-7.08,19.12s-7.78,21.07-16,43.18-15.4,41.55-16,43.19-5.21,14.13-10.28,27.75-14.7,39.68-21.44,57.92S302.85,804,302.73,804.15c-.25.31-5.72-7.9-10.9-16.37a361.25,361.25,0,0,1,206.59-534c2.41-.74,5.21-1.56,6.23-1.87C508.05,250.84,508,250.47,505.45,257.27Zm41.29,700c-.15.14-9-1.36-15.18-2.52A361.18,361.18,0,0,1,406.81,905c-1.7-1.07-11-7.22-11.16-7.39s3.12-9.17,14.84-42.17c3.54-9.94,11.75-33.05,21.86-61.45,4.59-12.94,12.8-36,18.21-51.26s11.87-33.36,14.3-40.21c4.31-12.12,13.57-38.18,22.94-64.57,2.55-7.17,6.6-18.58,9-25.35s8.52-24,13.59-38.23,10.9-30.64,12.94-36.39,7.88-22.15,12.95-36.39,9.48-26.68,9.82-27.61l.6-1.7.08,242.39C546.82,848,546.79,957.13,546.74,957.22ZM847,668.75,847,864l-4.31,3.88c-41.09,36.9-87.31,62.92-139.39,78.47-7.16,2.15-14.1,4-22.76,6-.6.14-.66.11-.49-.6.12-.42,2.92-8.55,6.26-18.07l17.56-50.29c6.34-18.16,12.46-35.68,13.59-38.94,1.7-4.87,19.21-55,34.41-98.55,1.73-5,10.17-29.14,18.75-53.67,20.87-59.78,21-60.26,31.38-89.91,1.75-5,5-14.36,7.28-20.82s5-14.44,6.17-17.73,3.51-10,5.24-15,5.49-15.71,8.35-23.9,6.6-18.94,8.36-23.9c8-22.8,9.34-26.85,9.34-27.07s.06-.29.15-.29S847,561.42,847,668.75Z"/></svg>