<svg id="LAYER" xmlns="http://www.w3.org/2000/svg" viewBox="0 0 1000 795"><defs><style>.cls-1{fill:#f2f3f5;}.cls-2,.cls-3{fill:#ff0054;}.cls-3{font-size:95.04px;font-family:MontserratSubrayada-Bold, Montserrat Subrayada;font-weight:700;letter-spacing:-0.01em;}.cls-4{letter-spacing:-0.01em;}.cls-5{letter-spacing:-0.05em;}.cls-6{letter-spacing:-0.01em;}</style></defs><rect id="BACKDROP" class="cls-1" width="1000" height="795"/><path id="LOGO" class="cls-2" d="M600,344.81a164.36,164.36,0,0,1,54.67-30A159.76,159.76,0,0,0,643,279.08a202.07,202.07,0,0,0-79.25,47.85,189,189,0,0,1-36.51-30.29,165.82,165.82,0,0,0,94.2-51.83,158.87,158.87,0,0,0-27.19-25.94,128.58,128.58,0,0,1-53,35.43,224.06,224.06,0,0,0,15.06-56.59,158.21,158.21,0,0,0-36.71-9.42,186.51,186.51,0,0,1-21,68.38,186.7,186.7,0,0,1-20.94-68.36A160.42,160.42,0,0,0,441,197.73,224,224,0,0,0,456,254.3,128.65,128.65,0,0,1,403,218.84a158.5,158.5,0,0,0-27.14,26A165.84,165.84,0,0,0,470,296.64a188.6,188.6,0,0,1-36.49,30.29,202,202,0,0,0-79.26-47.85,158.39,158.39,0,0,0-11.7,35.7,164,164,0,0,1,54.72,30A186.89,186.89,0,0,1,339.77,356a159.55,159.55,0,0,0,6.85,37.27,223.87,223.87,0,0,0,75.67-18l-.19.1c1.27,1.67,2.52,3.32,3.8,5h0l53.95,70.34v53.44a159.42,159.42,0,0,0,37.56,0V450.69l54-70.34c1.26-1.67,2.54-3.33,3.8-5a224.31,224.31,0,0,0,75.49,17.93A158.76,158.76,0,0,0,657.45,356,187,187,0,0,1,600,344.81ZM498.6,413.46l-39.26-51.18v0l-3.71-4.87-.22.12A226.61,226.61,0,0,0,498.6,321a225.93,225.93,0,0,0,43,36.35l-3.72,4.87Z"/><text id="TEXT" class="cls-3" transform="translate(292.95 590.88)">S<tspan class="cls-4" x="59.21" y="0">YM</tspan><tspan class="cls-5" x="206.72" y="0">P</tspan><tspan class="cls-6" x="266.22" y="0">AN</tspan></text></svg>