<svg id="LAYER" xmlns="http://www.w3.org/2000/svg" viewBox="0 0 795.75 795.75"><defs><style>.cls-1{fill:#f2f3f5;}.cls-2{fill:#ff0054;}</style></defs><rect id="BACKDROP" class="cls-1" width="795.75" height="795.75"/><path id="LOGO" class="cls-2" d="M573.23,394.5A284.92,284.92,0,0,1,668,342.45a276.88,276.88,0,0,0-20.21-61.93,350.46,350.46,0,0,0-137.42,83A327.23,327.23,0,0,1,447.11,311,287.56,287.56,0,0,0,610.45,221.1a275,275,0,0,0-47.15-45,223,223,0,0,1-91.93,61.43,388.37,388.37,0,0,0,26.1-98.12,273.27,273.27,0,0,0-63.65-16.34,323.39,323.39,0,0,1-36.33,118.56,323.5,323.5,0,0,1-36.31-118.51,277.33,277.33,0,0,0-63.66,16.32,388.25,388.25,0,0,0,26.1,98.09,223.15,223.15,0,0,1-92-61.49,275.6,275.6,0,0,0-47,45.07A287.56,287.56,0,0,0,347.87,311a327.47,327.47,0,0,1-63.29,52.52,350.39,350.39,0,0,0-137.42-83,273.77,273.77,0,0,0-20.29,61.91,284.47,284.47,0,0,1,94.88,52.07,324.65,324.65,0,0,1-99.67,19.41A277.29,277.29,0,0,0,134,478.53a388.3,388.3,0,0,0,131.21-31.24l-.32.17c2.19,2.89,4.37,5.76,6.58,8.65l-.05,0,93.56,122v92.66a276.49,276.49,0,0,0,65.12-.06V578.1l93.56-122c2.19-2.9,4.4-5.78,6.59-8.67a389,389,0,0,0,130.89,31.09,275.18,275.18,0,0,0,11.84-64.64A324.89,324.89,0,0,1,573.23,394.5Zm-175.74,119-68.07-88.75v-.07q-3.24-4.22-6.45-8.44l-.37.2a392.75,392.75,0,0,0,74.89-63.23,391.9,391.9,0,0,0,74.58,63c-2.14,2.82-4.3,5.63-6.44,8.44Z"/></svg>