<svg xmlns="http://www.w3.org/2000/svg" viewBox="0 0 240.94 155.91"><defs><style>.cls-1{fill:#f4f3f3;}.cls-2{fill:#59c0eb;}.cls-3{fill:#ffde00;}.cls-4{fill:#e6233d;}.cls-5{fill:#f3a1c6;}.cls-6,.cls-7{font-size:7px;fill:#1d1d1b;font-family:AcuminPro-Bold, Acumin Pro;font-weight:700;}.cls-6,.cls-8{letter-spacing:0.2em;}.cls-7{letter-spacing:0.2em;}.cls-9{fill:#010101;}</style></defs><g id="EU_Business_Card_-_Front" data-name="EU Business Card - Front"><g id="Background-4" data-name="Background"><rect class="cls-1" x="-8.5" y="-8.5" width="257.95" height="172.92"/></g><g id="Graphic_Elements-2" data-name="Graphic Elements"><polygon class="cls-2" points="180.64 155.91 120.41 116.93 120.41 116.93 180.64 116.93 180.64 155.91"/><polygon class="cls-3" points="180.64 77.95 120.41 116.93 120.41 116.93 180.64 116.93 180.64 77.95"/><polygon class="cls-4" points="180.64 77.95 240.88 116.93 240.88 116.93 180.64 116.93 180.64 77.95"/><polygon class="cls-5" points="180.64 155.91 240.88 116.93 240.88 116.93 180.64 116.93 180.64 155.91"/><polygon class="cls-2" points="60.23 77.95 120.47 116.93 120.47 116.93 60.23 116.93 60.23 77.95"/><polygon class="cls-3" points="60.23 155.91 120.47 116.93 120.47 116.93 60.23 116.93 60.23 155.91"/><polygon class="cls-4" points="60.23 155.91 0 116.93 0 116.93 60.23 116.93 60.23 155.91"/><polygon class="cls-5" points="60.23 77.95 0 116.93 0 116.93 60.23 116.93 60.23 77.95"/><polygon class="cls-2" points="180.64 0 240.88 38.98 240.88 38.98 180.64 38.98 180.64 0"/><polygon class="cls-3" points="180.64 77.95 240.88 38.98 240.88 38.98 180.64 38.98 180.64 77.95"/><polygon class="cls-4" points="180.64 77.95 120.41 38.98 120.41 38.98 180.64 38.98 180.64 77.95"/><polygon class="cls-5" points="180.64 0 120.41 38.98 120.41 38.98 180.64 38.98 180.64 0"/><polygon class="cls-2" points="60.23 77.95 0 38.98 0 38.98 60.23 38.98 60.23 77.95"/><polygon class="cls-3" points="60.23 0 0 38.98 0 38.98 60.23 38.98 60.23 0"/><polygon class="cls-4" points="60.23 0 120.47 38.98 120.47 38.98 60.23 38.98 60.23 0"/><polygon class="cls-5" points="60.23 77.95 120.47 38.98 120.47 38.98 60.23 38.98 60.23 77.95"/></g><g id="Text-3" data-name="Text"><text class="cls-6" transform="translate(103.53 14.33)">MUSIC 3</text><text class="cls-7" transform="translate(92.4 146.84)">“HYPERPOP”</text><text class="cls-6" transform="translate(224.21 65.45) rotate(90)">WHAT</text><text class="cls-7" transform="translate(15.45 92.55) rotate(-90)">SINCE<tspan class="cls-8"><tspan x="3.68" y="8.4">2021</tspan></tspan></text><path class="cls-9" d="M119.61,55.75A22.25,22.25,0,0,0,99.93,69.44a22.63,22.63,0,0,0-1.58,6.28,19.64,19.64,0,0,0-.1,2.24c0,.78,0,1.12.06,1.73a22,22,0,0,0,3.13,9.76,22.39,22.39,0,0,0,9.2,8.45,22.07,22.07,0,0,0,8.1,2.22c.61,0,1,.06,1.73.06s1.12,0,1.73-.06A22.23,22.23,0,0,0,141.27,85.8a21.85,21.85,0,0,0,1.36-6.11c.05-.63.06-.93.06-1.72s0-1.13-.06-1.75a22.13,22.13,0,0,0-4.32-11.53,22.21,22.21,0,0,0-16.42-8.92C121.2,55.73,120.28,55.72,119.61,55.75Zm4.24,3.62a18.66,18.66,0,0,1,6.5,2.48l.27.17s0,0,0,0-.1.29-.22.62L130,64.15l-.58,1.69-.38,1.1-.85,2.49c-.22.64-.59,1.71-1.72,5l-1,2.77-.58,1.71-.93,2.7c-.29.85-.52,1.55-.53,1.56s0-5.36,0-11.94v-12h0ZM115.5,60l-.62,1.68-.52,1.4-.63,1.71c-.1.26-.44,1.19-.76,2.06s-.69,1.86-.82,2.2-.44,1.18-.69,1.87c-.51,1.36-.89,2.4-1.1,3l-1.11,3c-.17.47-.34.92-.37,1L108,80.14c-.42,1.16-.8,2.18-.83,2.26s-.28.74-.54,1.46-.77,2.07-1.12,3-.65,1.74-.65,1.74a6.15,6.15,0,0,1-.57-.85,18.9,18.9,0,0,1,10.81-27.95l.32-.1C115.64,59.68,115.64,59.66,115.5,60Zm2.16,36.63s-.47-.07-.79-.13a19,19,0,0,1-6.53-2.6l-.58-.39s.16-.48.77-2.2c.19-.52.62-1.73,1.15-3.22.24-.68.67-1.88.95-2.68s.62-1.75.75-2.11c.22-.63.71-2,1.2-3.37.13-.38.35-1,.47-1.33s.45-1.26.71-2l.68-1.91.68-1.9c.26-.74.49-1.4.51-1.44l0-.09V84C117.67,90.93,117.67,96.64,117.66,96.64Zm15.72-15.09V91.76l-.23.2a18.7,18.7,0,0,1-7.29,4.11c-.38.11-.74.21-1.19.32,0,0,0,0,0,0s.15-.44.33-.94.59-1.68.92-2.63l.71-2c.09-.26,1-2.88,1.8-5.16l1-2.81,1.64-4.7L131.4,77l.33-.93.27-.78.44-1.25c.15-.43.34-1,.43-1.25.42-1.2.49-1.41.49-1.42v0S133.38,75.93,133.38,81.55Z"/></g></g></svg>