<svg xmlns="http://www.w3.org/2000/svg" viewBox="0 0 240.94 155.91"><defs><style>.cls-1{fill:#f4f3f3;}.cls-2{font-size:7px;fill:#1d1d1b;font-family:AcuminPro-Bold, Acumin Pro;font-weight:700;letter-spacing:0.01em;}.cls-3{letter-spacing:0.01em;}.cls-4{fill:#010101;}</style></defs><g id="EU_Business_Card_-_Back" data-name="EU Business Card - Back"><g id="Background-3" data-name="Background"><rect class="cls-1" x="-8.5" y="-8.5" width="257.95" height="172.92"/></g><g id="Text-2" data-name="Text"><text class="cls-2" transform="translate(93.51 14.33)">(000) 000-0000<tspan x="-12.89" y="8.4">YOUR_ABILITIES_HERE</tspan></text><text class="cls-2" transform="translate(77.64 130.04)">YOUR_USERNAME_HERE<tspan x="6.17" y="8.4">YOU@EXAMPLE.COM</tspan><tspan class="cls-3"><tspan x="-9.04" y="16.8">HTTP://MUSICPRODUCT.INFO</tspan></tspan></text></g></g><g id="EU_Business_Card_-_Front" data-name="EU Business Card - Front"><g id="Text-4" data-name="Text"><path class="cls-4" d="M61.69,69.92A4.21,4.21,0,0,0,59.48,72a3.56,3.56,0,0,0-.35,1.9,4.06,4.06,0,0,0,2,3.91,2.37,2.37,0,0,0,1.51.37A2.59,2.59,0,0,0,64,77.94a4.63,4.63,0,0,0,1.8-5.8,4,4,0,0,0-2.25-2.22A2.51,2.51,0,0,0,61.69,69.92Zm1.9.82a3.42,3.42,0,0,1,1.79,3.2,3.83,3.83,0,0,1-.86,2.65c-1.35,1.57-3.47,1.14-4.4-.9A3.62,3.62,0,0,1,59.86,74a3,3,0,0,1,.34-1.78,3,3,0,0,1,2.42-1.76A2.65,2.65,0,0,1,63.59,70.74Z"/><path class="cls-4" d="M61.85,71.62c-1.2.59-1.56,2.82-.69,4.14a1.73,1.73,0,0,0,3-.15c.27-.52.22-.82-.13-.82-.19,0-.3.07-.3.19,0,.28-.66.89-1,.89-.81,0-1.35-.77-1.34-1.94,0-1.67,1.36-2.4,2.17-1.15.18.26.38.44.53.44s.23-.06.17-.42A1.69,1.69,0,0,0,61.85,71.62Z"/><path class="cls-4" d="M114.23,69.87c-1.51.39-2.23,1.18-2.23,2.46s.65,1.88,2.18,2.28c2.26.6,2.44.7,2.37,1.35s-1.18,1.16-2.22.77a1.11,1.11,0,0,1-.79-.74l-.23-.53h-.71a1.74,1.74,0,0,0-.78.11c-.17.29.23,1.28.73,1.77a4.25,4.25,0,0,0,4,.71,2.2,2.2,0,0,0,1.76-2.29c0-1.35-.67-2-2.85-2.5-1.49-.38-1.78-.56-1.78-1.11s.45-.9,1.26-.9a1.53,1.53,0,0,1,1.52.83c.14.36.16.37,1,.37h.82l-.09-.4a2.73,2.73,0,0,0-1.67-2A6.26,6.26,0,0,0,114.23,69.87Z"/><path class="cls-4" d="M125,70a3.61,3.61,0,0,0-2.45,2.41,6.26,6.26,0,0,0,.07,3.51,3.9,3.9,0,0,0,2.16,2.17,4.68,4.68,0,0,0,3-.15,3.23,3.23,0,0,0,1.48-1.68c.24-.85.22-.88-.61-.88h-.76l-.2.48a1.58,1.58,0,0,1-1.52,1,2.1,2.1,0,0,1-2.09-2c-.3-1.65.35-3.14,1.51-3.46a1.73,1.73,0,0,1,2.13.92c.16.42.16.42.92.42s.86,0,.61-.89a3.16,3.16,0,0,0-1.78-1.75A4.86,4.86,0,0,0,125,70Z"/><path class="cls-4" d="M150.13,69.91a4,4,0,0,0-2.52,2.17,7,7,0,0,0,0,3.89,4.62,4.62,0,0,0,1.71,1.88,2.59,2.59,0,0,0,1.7.32,2.72,2.72,0,0,0,1.78-.35,3.75,3.75,0,0,0,2-2.95,4.25,4.25,0,0,0-2.25-4.77A5.21,5.21,0,0,0,150.13,69.91Zm1.53,1.46a2.7,2.7,0,0,1,1.54,2.68,2.9,2.9,0,0,1-1.42,2.63,2.1,2.1,0,0,1-1.72-.17A2.73,2.73,0,0,1,149,74.14a2.47,2.47,0,0,1,.3-1.69,1.77,1.77,0,0,1,.88-.94A1.57,1.57,0,0,1,151.66,71.37Z"/><path class="cls-4" d="M173.8,70a3.65,3.65,0,0,0-2.67,3.2,4.48,4.48,0,0,0,2,4.75,5.59,5.59,0,0,0,3.37,0A3.13,3.13,0,0,0,178,76.32c.32-.92.29-1-.58-1h-.77l-.19.48a1.48,1.48,0,0,1-1.67.94c-1.15-.08-1.82-.83-2-2.26-.2-1.63.57-3,1.77-3.19a1.66,1.66,0,0,1,1.86.89l.22.49h.76c.71,0,.76,0,.76-.28a3.81,3.81,0,0,0-.86-1.73A4.17,4.17,0,0,0,173.8,70Z"/><path class="cls-4" d="M95.13,74v4h1.6l-.08-2.67c-.05-1.47-.11-2.93-.15-3.23-.07-.77.11-.31.41,1,.14.58.47,1.92.76,3L98.18,78h1.71l.59-2.26c.33-1.24.69-2.67.8-3.16l.21-.9-.07,3.15L101.36,78H103V70h-2.4l-.12.45c-.07.25-.42,1.62-.78,3-.52,2.08-.67,2.52-.73,2.23-.11-.5-.72-2.88-1.11-4.39l-.34-1.27-1.17,0-1.18,0Z"/><path class="cls-4" d="M104.41,73c0,3.1.07,3.63.56,4.28s1.14.93,2.57.93,2-.21,2.57-.93.56-1.18.56-4.28V70H109l0,3.07c0,3,0,3.07-.31,3.34s-.4.28-1.11.28-.88,0-1.11-.28-.28-.33-.31-3.34l0-3.07h-1.67Z"/><path class="cls-4" d="M119.47,74v4h1.68V70h-1.68Z"/><path class="cls-4" d="M133.2,74v4h1.69V75.26l1.26-.06a2.91,2.91,0,0,0,1.82-.41,2.31,2.31,0,0,0,1.13-2.15,2.4,2.4,0,0,0-1.66-2.48A17,17,0,0,0,135.1,70h-1.9ZM137,71.7a1.13,1.13,0,0,1-.12,1.89,3,3,0,0,1-1.19.19h-.84V71.33l.93.07A2.57,2.57,0,0,1,137,71.7Z"/><path class="cls-4" d="M140,74v4h1.67l0-1.54,0-1.53.69,0c.94,0,1.59.15,1.76.51a4.74,4.74,0,0,1,.21,1.06c0,.42.09.94.13,1.14l.06.4h.83a2.22,2.22,0,0,0,.84-.09c0-.06-.08-.73-.18-1.49-.19-1.42-.36-1.84-.89-2.1-.26-.14-.25-.15.16-.39a1.82,1.82,0,0,0,.91-1.71,2,2,0,0,0-1.08-1.9c-.5-.26-.69-.27-2.86-.27H140ZM144,71.58a.94.94,0,0,1,.44,1.32c-.22.51-.57.63-1.82.63h-1v-1a3.75,3.75,0,0,1,.09-1.08A4.78,4.78,0,0,1,144,71.58Z"/><path class="cls-4" d="M156,74v4l2.21,0c2.43,0,2.74-.13,3.54-1a3.61,3.61,0,0,0,.94-2.92c0-2-.47-3-1.71-3.64-.68-.33-.77-.34-2.83-.38L156,70Zm4-2.41c.78.39,1.14,1.5,1,3s-.71,1.9-2.32,1.9h-1V71.34l1,0A4.61,4.61,0,0,1,160,71.61Z"/><path class="cls-4" d="M163.8,73.17c0,3.46,0,3.63.74,4.32a4,4,0,0,0,4.65,0c.72-.75.76-1,.76-4.38V70h-1.69v6l-.35.35c-.3.3-.45.35-1,.35a1.28,1.28,0,0,1-1-.32l-.37-.31V70H163.8Z"/><path class="cls-4" d="M178.62,70.76v.73H181V78h1.69v-6.5H185V70h-6.39Z"/><path class="cls-4" d="M70,70.49a2.39,2.39,0,0,0-1.06,1.91l-.06.58h.4c.38,0,.4,0,.54-.64s.28-.94.68-1.14a1.1,1.1,0,0,1,1.11,0c.42.23.61.66.61,1.4s-.26,1.07-1.57,2a6.29,6.29,0,0,0-1.24,1.12,5.16,5.16,0,0,0-.68,2V78h4.47l0-.46,0-.44-1.71,0A6.94,6.94,0,0,1,69.66,77a3.3,3.3,0,0,1,1.14-1.34c2-1.44,2.3-1.85,2.3-3.13a2.3,2.3,0,0,0-.94-2A2.39,2.39,0,0,0,70,70.49Z"/><path class="cls-4" d="M74.91,70.73a4.48,4.48,0,0,0-1,2.93c-.15,1.78.38,3.73,1.16,4.28a2.07,2.07,0,0,0,1.49.29A2.48,2.48,0,0,0,78,76.74a10.11,10.11,0,0,0,.18-4.41c-.36-1.53-1-2.12-2.11-2.12C75.45,70.21,75.38,70.25,74.91,70.73Zm1.78.56c.54.44.75,1.21.75,2.9,0,2.25-.39,3.13-1.34,3.13-.52,0-.95-.52-1.13-1.36a10.2,10.2,0,0,1,.2-4.1C75.53,71.07,76.12,70.85,76.69,71.29Z"/><path class="cls-4" d="M80.33,70.41a2.08,2.08,0,0,0-1.21,1.93L79,73h.42c.41,0,.43,0,.51-.52.2-1.19,1-1.7,1.85-1.23a1.41,1.41,0,0,1,.59,1.51c-.07.72-.26,1-1.57,1.89a7.41,7.41,0,0,0-1.25,1.13,4.63,4.63,0,0,0-.65,2V78h4.47l0-.46,0-.44-1.71,0c-1.89,0-1.95-.06-1.46-.7a5.21,5.21,0,0,1,1.51-1.25,3.32,3.32,0,0,0,1.6-1.92,2.16,2.16,0,0,0-3-2.82Z"/><path class="cls-4" d="M86.36,70.57a1.36,1.36,0,0,1-1.14,1c-.47.07-.5.11-.5.48v.41h1.57V78h.84V70.21h-.35C86.49,70.21,86.42,70.27,86.36,70.57Z"/></g></g></svg>